<svg xmlns="http://www.w3.org/2000/svg" viewBox="0 0 480 480" width="480" height="480">
  <rect width="480" height="480" fill="#EFEBE2"/>
  <g stroke="#0F0E0C" stroke-width="1.2" fill="none">
    <path d="M150 188 L150 402 Q150 422 172 422 L308 422 Q330 422 330 402 L330 188"/>
    <line x1="140" y1="188" x2="340" y2="188" stroke-width="0.8"/>
    <circle cx="240" cy="266" r="62"/>
    <path d="M200 234 Q240 196 280 234" stroke-width="0.8"/>
    <path d="M200 298 Q240 336 280 298" stroke-width="0.8"/>
    <line x1="240" y1="206" x2="240" y2="326" stroke-width="0.8"/>
    <path d="M178 266 L100 266" stroke-width="0.8"/>
    <path d="M302 266 L380 266" stroke-width="0.8"/>
    <circle cx="100" cy="266" r="4"/>
    <circle cx="380" cy="266" r="4"/>
  </g>
  <circle cx="240" cy="266" r="3" fill="#D8FF3A"/>
  <text x="20" y="460" font-family="monospace" font-size="11" fill="#6b6a63" letter-spacing="3">C.005</text>
</svg>
