<svg xmlns="http://www.w3.org/2000/svg" viewBox="0 0 480 480" width="480" height="480">
  <rect width="480" height="480" fill="#EFEBE2"/>
  <g stroke="#0F0E0C" stroke-width="1.2" fill="none">
    <!-- Pineapple leafy crown (spikes) -->
    <path d="M198 132 L212 68 L230 120 L240 60 L250 120 L268 68 L282 132"/>
    <!-- Body ellipse -->
    <ellipse cx="240" cy="280" rx="88" ry="114"/>
    <!-- Horizontal scale rings -->
    <line x1="170" y1="210" x2="310" y2="210" stroke-width="0.6"/>
    <line x1="158" y1="260" x2="322" y2="260" stroke-width="0.6"/>
    <line x1="158" y1="310" x2="322" y2="310" stroke-width="0.6"/>
    <line x1="170" y1="360" x2="310" y2="360" stroke-width="0.6"/>
    <!-- Diamond scale lattice -->
    <line x1="168" y1="240" x2="216" y2="192" stroke-width="0.5"/>
    <line x1="168" y1="290" x2="218" y2="240" stroke-width="0.5"/>
    <line x1="168" y1="340" x2="218" y2="290" stroke-width="0.5"/>
    <line x1="218" y1="192" x2="266" y2="240" stroke-width="0.5"/>
    <line x1="218" y1="240" x2="266" y2="290" stroke-width="0.5"/>
    <line x1="218" y1="290" x2="266" y2="340" stroke-width="0.5"/>
    <line x1="266" y1="240" x2="314" y2="192" stroke-width="0.5"/>
    <line x1="266" y1="290" x2="314" y2="240" stroke-width="0.5"/>
    <line x1="266" y1="340" x2="314" y2="290" stroke-width="0.5"/>
    <!-- Seal stamp in lower-right corner -->
    <rect x="352" y="346" width="42" height="42" stroke-width="0.8"/>
    <circle cx="373" cy="367" r="10" stroke-width="0.6"/>
  </g>
  <circle cx="240" cy="280" r="3" fill="#D8FF3A"/>
  <text x="20" y="460" font-family="monospace" font-size="11" fill="#6b6a63" letter-spacing="3">C.007</text>
</svg>
