<svg xmlns="http://www.w3.org/2000/svg" viewBox="0 0 480 480" width="480" height="480">
  <rect width="480" height="480" fill="#EFEBE2"/>
  <g stroke="#0F0E0C" stroke-width="1.2" fill="none">
    <!-- Banana crescent -->
    <path d="M116 176 Q224 96 352 186 L340 214 Q222 134 128 208 Z"/>
    <!-- Banana tip (top) -->
    <path d="M352 186 L372 180 L362 198 L340 214" stroke-width="0.8"/>
    <!-- Banana tip (bottom) -->
    <path d="M116 176 L104 164 L120 162" stroke-width="0.8"/>
    <!-- Scroll of speech ribbons (three curved lines flowing rightward) -->
    <path d="M96 296 Q176 276 224 296 Q276 318 380 296"/>
    <path d="M96 330 Q176 310 224 330 Q276 352 380 330" stroke-width="0.8"/>
    <path d="M96 364 Q176 344 224 364 Q276 386 380 364" stroke-width="0.8"/>
    <!-- Ribbon terminator notch -->
    <path d="M380 296 L396 304 L380 312" stroke-width="0.6"/>
  </g>
  <circle cx="224" cy="178" r="3" fill="#D8FF3A"/>
  <text x="20" y="460" font-family="monospace" font-size="11" fill="#6b6a63" letter-spacing="3">C.008</text>
</svg>
