<svg xmlns="http://www.w3.org/2000/svg" viewBox="0 0 480 480" width="480" height="480">
  <rect width="480" height="480" fill="#EFEBE2"/>
  <g stroke="#0F0E0C" stroke-width="1.2" fill="none">
    <!-- Deathmask oval -->
    <ellipse cx="240" cy="208" rx="82" ry="102"/>
    <!-- Forehead band -->
    <line x1="172" y1="176" x2="308" y2="176" stroke-width="0.8"/>
    <!-- Eye sockets -->
    <ellipse cx="212" cy="202" rx="7" ry="11" stroke-width="0.8"/>
    <ellipse cx="268" cy="202" rx="7" ry="11" stroke-width="0.8"/>
    <!-- Mouth slit -->
    <line x1="218" y1="250" x2="262" y2="250" stroke-width="0.8"/>
    <!-- Spike above mask (crown suggestion) -->
    <path d="M206 122 L240 94 L274 122" stroke-width="0.8"/>
    <!-- Speed trail lines (below, trailing left) -->
    <line x1="80" y1="340" x2="200" y2="340" stroke-width="0.8"/>
    <line x1="60" y1="370" x2="230" y2="370" stroke-width="0.8"/>
    <line x1="80" y1="400" x2="180" y2="400" stroke-width="0.8"/>
    <!-- Blueberry -->
    <circle cx="280" cy="370" r="26"/>
    <!-- Calyx on berry -->
    <path d="M264 352 L268 342 L278 348 L288 342 L292 352" stroke-width="0.6"/>
  </g>
  <circle cx="280" cy="370" r="3" fill="#D8FF3A"/>
  <text x="20" y="460" font-family="monospace" font-size="11" fill="#6b6a63" letter-spacing="3">C.013</text>
</svg>
