<?xml version="1.0" encoding="UTF-8"?>
<svg id="_レイヤー_1" data-name="レイヤー_1" xmlns="http://www.w3.org/2000/svg" version="1.1" viewBox="0 0 548.3 175.88">
  <!-- Generator: Adobe Illustrator 30.3.0, SVG Export Plug-In . SVG Version: 2.1.3 Build 182)  -->
  <defs>
    <style>
      .st0 {
        fill: #edeae2;
      }

      .st1 {
        fill: #d5e26d;
      }
    </style>
  </defs>
  <path class="st0" d="M39.44,37.92h-.85c-1.89-.24-3.81.25-5.36,1.37-1.14,1.84-1.79,3.94-1.87,6.1-.27,2.38-.4,7.81-.4,16.58v67.79c0,8.69-.18,15.38-.52,19.91-.35,4.45-1.31,8.83-2.87,13.02-1.25,3.73-3.41,7.08-6.29,9.75-2.54,2.25-5.83,3.47-9.22,3.44-3.5.19-6.88-1.37-9.01-4.15C1,168.98-.07,165.63,0,162.21c-.06-1.86.29-3.7,1.03-5.41.68-1.44,1.49-2.14,2.48-2.14s1.86.64,2.54,1.95c.72,1.48,1.07,3.11,1.01,4.76,0,1.57-.12,3.13-.38,4.68-.27,1.02-.43,2.08-.47,3.14-.08,1.74.55,3.43,1.76,4.68,1.06.98,2.45,1.5,3.89,1.47,3.09,0,5.73-1.95,7.85-5.8,2.2-4.61,3.48-9.61,3.78-14.71.42-5.06.64-13.49.64-25.06V61.98c0-8.4-.12-13.69-.38-16.18-.07-2.24-.68-4.42-1.78-6.37-.88-1.02-2.67-1.51-5.47-1.51h-.77l-.02-.86h23.71v.86Z"/>
  <path class="st0" d="M99.57,37.06v.86c-2.08.3-3.93,1.47-5.08,3.22-1.27,1.94-2.06,4.16-2.31,6.46-.27,2.28-.4,6.53-.4,12.99v35.35c0,8.73-.18,15.3-.52,19.51-.36,4.19-1.35,8.3-2.95,12.19-1.44,3.73-3.83,7.04-6.91,9.58-2.94,2.37-6.61,3.65-10.38,3.6-4.39.1-8.63-1.56-11.79-4.61-3.29-3.24-5.64-7.31-6.8-11.77-1.53-6.4-2.21-12.98-2.04-19.55l.04-10.63v-33.06c0-8.4-.12-13.69-.38-16.18-.05-2-.67-3.94-1.8-5.6-.88-1.02-2.67-1.51-5.47-1.51h-.73v-.86h23.28v.86h-.58c-1.89-.24-3.81.25-5.35,1.37-1.15,1.54-1.81,3.4-1.87,5.32-.29,2.39-.42,7.81-.42,16.59v33.44c0,11.34.27,19.52.81,24.31.45,4.66,2.07,9.13,4.71,12.99,2.22,3.47,6.07,5.55,10.19,5.5,3.36-.03,6.59-1.33,9.03-3.64,2.77-2.51,4.87-5.67,6.11-9.19,1.33-3.65,2.16-7.47,2.45-11.35.29-3.78.43-9.78.43-17.85v-36.19c.09-4.2-.09-8.4-.53-12.57-.23-2.22-1.06-4.34-2.4-6.13-1.31-1.48-3.13-2.41-5.1-2.6v-.86h16.76Z"/>
  <path class="st0" d="M220.04,121.31c-17.97,21.29-49.54,24.57-71.5,7.44-21.96-17.13-26.46-48.56-10.19-71.17,16.27-22.61,47.5-28.31,70.72-12.92l1.1,23.2h-.9c-.79-6.66-4.29-17.8-11.89-22.54-14.71-8.59-31.95-9.08-46.96,1.99-21.91,16.18-21.73,44.22-5.14,66.68,16.59,22.47,43.32,30.91,65.23,14.73,3.22-2.25,6.14-4.91,8.67-7.91l.86.51Z"/>
  <path class="st0" d="M220.09,138.92v-1.07h.61c2.79,0,4.56-.76,5.44-2.31.92-1.79,1.47-3.75,1.62-5.76.22-2.2.32-8.12.32-16.92v-50.88c0-8.03-.05-13.96-.28-16.54-.03-2.08-.63-4.12-1.74-5.88-1.29-1.22-3.04-1.81-4.81-1.63l-.06-.87h37.03l1.16,23.98h-.93c-.43-5.37-1.45-10.67-3.02-15.82-.74-2.52-2.37-4.68-4.59-6.07-2.62-.96-5.4-1.37-8.18-1.21h-7.85l-.06,40.53h6.12c1.97.19,3.96-.29,5.62-1.38,1.27-1.18,2.08-2.77,2.3-4.49.42-3.2.59-6.44.52-9.67h.88v33.61h-.88c.12-3.71-.15-7.41-.79-11.07-.25-1.69-1.13-3.23-2.45-4.31-1.55-.74-3.27-1.06-4.98-.93h-6.32v31.17c0,16.8.75,21.31,1.31,22.81.91,2.45,3.18,3.64,6.93,3.64h3.96c2.54.1,5.03-.67,7.07-2.17,1.88-1.46,3.68-4.48,5.36-8.97,1.92-5.91,3.21-12.01,3.85-18.2h.98l-1.07,30.4h-43.06Z"/>
  <path class="st0" d="M318.18,59.33h-.78c-.3-4.87-1.13-9.7-2.47-14.39-1.11-3.21-2.33-5.21-3.63-5.96-1.98-.86-4.13-1.23-6.29-1.07h-9.02l.08,75.5c0,8.23.1,13.51.3,16.13.04,2.21.65,4.38,1.78,6.29,1.27,1.49,3.2,2.25,5.14,2.02h2.1l-.08,1.07h-25.51l.08-1.07h2.27c1.86.21,3.71-.47,4.98-1.84,1.15-1.74,1.8-3.76,1.89-5.84.25-2.46.38-7.94.38-16.75l-.08-75.5h-8.35c-2.39-.18-4.78.15-7.02.99-1.29.71-2.5,2.79-3.59,6.18-1.28,4.65-2.07,9.43-2.37,14.25h-.9l.25-22.28h50.6l.25,22.28Z"/>
  <path class="st0" d="M404.26,131.46c-17.37,12.82-40.75,13.92-59.24,2.78-18.49-11.14-28.45-32.32-25.23-53.67,3.21-21.35,18.97-38.65,39.93-43.85,20.95-5.2,42.97,2.74,55.79,20.1,17.5,23.72,12.47,57.13-11.25,74.64ZM403.57,130.54c22.54-16.64,22.36-45.48,5.29-68.61-17.07-23.13-44.57-31.8-67.11-15.16-22.54,16.64-22.36,45.47-5.29,68.6,17.08,23.14,44.58,31.81,67.12,15.17h0Z"/>
  <path class="st0" d="M443.53,84.91h0v28.32c0,8.29.1,13.57.3,16.17.04,2.2.65,4.34,1.76,6.24,1.27,1.5,3.21,2.27,5.16,2.02h1.08v1.07h-23.31v-1.07h1.08c1.86.21,3.71-.47,4.98-1.84,1.15-1.74,1.8-3.77,1.88-5.85.24-2.45.36-7.93.36-16.74v-51.44c0-4.99-.04-9.12-.12-12.2-.06-1.98-.14-3.51-.23-4.48-.62-5.66-1.94-7.33-7.8-7.19l-.02-.89c4.47-.21,13.71-.75,18.22-1.04,14.1,0,21.13,10.84,21.28,23.54.11,10.68-4.87,22.26-17.96,24.64-2.2.4-4.42.65-6.65.75ZM443.53,83.88c14.78,1.04,17.26-12.88,17.26-23.28,0-7.93-.26-23.71-13.63-23.45-1.21.01-2.43.11-3.63.31v46.42Z"/>
  <path class="st0" d="M492.34,137.86h1.08v1.07h-23.32v-1.07h1.09c1.86.21,3.71-.47,4.98-1.84,1.15-1.74,1.8-3.77,1.87-5.85.24-2.45.36-7.93.36-16.74v-51.45c0-8.4-.11-14.46-.35-16.94-.03-2.01-.66-3.96-1.8-5.61-.89-1.02-2.69-1.51-5.49-1.51h-.65v-.86s23.3,0,23.3,0v.86s-.64,0-.64,0c-1.89-.24-3.81.25-5.36,1.37-1.15,1.54-1.81,3.4-1.87,5.32-.28,2.39-.43,8.58-.43,17.36v51.45c0,8.29.11,13.58.31,16.17.04,2.2.65,4.34,1.76,6.24,1.26,1.5,3.2,2.27,5.15,2.03Z"/>
  <path class="st0" d="M534.96,131.5c-.32-3.65-.94-7.27-1.87-10.81l-7.43-38.41h-13.43l-5.65,25.97c-1.56,6.35-2.59,12.82-3.06,19.35-.17,2.7.46,5.38,1.82,7.72.86,1.42,2.33,2.36,3.98,2.54l-.02,1.05h-14.82v-1.05c2.33-.87,4.18-2.66,5.13-4.96,1.89-5.44,3.31-11.04,4.24-16.72.13-.77.76-3.69,1.88-8.73l10.84-49.89c.68-3.69,3.16-19.6-3.85-19.74h-1.48l.02-.84h10.66l17.62,80.73,2.43,10.73c.42,2.15,1.22,4.2,2.36,6.06.88,1.56,2.3,2.75,3.98,3.35v1.05h-19.91l.03-1.05c1.71.13,3.42-.27,4.89-1.16.75-.61,1.65-2,1.64-5.2ZM525.41,81.4l-6.9-28.75-6.17,28.75h13.07Z"/>
  <circle class="st1" cx="114.27" cy="10.43" r="10.43"/>
  <path class="st0" d="M124.84,137.86c-1.95.24-3.89-.52-5.15-2.03-1.11-1.9-1.71-4.04-1.76-6.24-.2-2.59-.3-7.88-.3-16.17v-19.78s0-.1,0-.1v-31.57c0-.87,0-1.7,0-2.52v-22.4h-15.01l-.02.84h1.48c6.55.13,6.83,8.71,6.83,17.83v57.69c0,8.81-.12,14.29-.36,16.74-.08,2.09-.72,4.11-1.87,5.85-1.28,1.37-3.12,2.05-4.98,1.84h-1.08v1.07s23.31,0,23.31,0v-1.07s-1.07,0-1.07,0Z"/>
</svg>